<svg width="32" height="32" viewBox="0 0 32 32" fill="none" xmlns="http://www.w3.org/2000/svg">
<path d="M23 13H20.535C20.201 13 19.889 12.833 19.703 12.555L18.594 10.891C18.223 10.335 17.598 10 16.93 10H16V12H16.465C16.799 12 17.111 12.167 17.297 12.445L18.406 14.109C18.777 14.665 19.402 15 20.07 15H23C24.103 15 25 15.897 25 17V18C25 18.552 24.552 19 24 19H21.816C21.401 17.839 20.302 17 19 17C17.698 17 16.599 17.839 16.184 19H13.816C13.402 17.837 12.304 17 11 17C9.696 17 8.597 17.837 8.184 19H8C7.448 19 7 18.552 7 18V17H5V18C5 19.654 6.346 21 8 21H8.184C8.598 22.163 9.696 23 11 23C12.304 23 13.403 22.163 13.816 21H16.184C16.598 22.161 17.698 23 18.999 23C20.3 23 21.4 22.161 21.815 21H23.999C25.653 21 26.999 19.654 26.999 18V17C26.999 14.794 25.206 13 23 13ZM11 21C10.448 21 10 20.552 10 20C10 19.448 10.448 19 11 19C11.552 19 12 19.448 12 20C12 20.552 11.552 21 11 21ZM19 21C18.448 21 18 20.552 18 20C18 19.448 18.448 19 19 19C19.552 19 20 19.448 20 20C20 20.552 19.552 21 19 21Z" fill="black"/>
<path d="M8 16H12C13.104 16 14 15.105 14 14V11H13V9C13 8.448 12.552 8 12 8C11.448 8 11 8.448 11 9V11H9V9C9 8.448 8.552 8 8 8C7.448 8 7 8.448 7 9V11H6V14C6 15.105 6.896 16 8 16Z" fill="black"/>
</svg>
