<svg width="32" height="32" viewBox="0 0 32 32" fill="none" xmlns="http://www.w3.org/2000/svg">
<path d="M24 10H21.5V7C21.5 6.172 20.828 5.5 20 5.5C19.172 5.5 18.5 6.172 18.5 7V10H17.5V7C17.5 6.172 16.828 5.5 16 5.5C15.172 5.5 14.5 6.172 14.5 7V10H13.5V7C13.5 6.172 12.828 5.5 12 5.5C11.172 5.5 10.5 6.172 10.5 7V10H8V17H9V21C9 22.654 10.346 24 12 24H14V27H18V24H20C21.654 24 23 22.654 23 21V17H24V10ZM10 12H22V15H10V12ZM21 21C21 21.552 20.552 22 20 22H12C11.448 22 11 21.552 11 21V17H21V21Z" fill="black"/>
</svg>
